G04*
G04 #@! TF.GenerationSoftware,Altium Limited,Altium Designer,22.4.2 (48)*
G04*
G04 Layer_Color=255*
%FSLAX25Y25*%
%MOIN*%
G70*
G04*
G04 #@! TF.SameCoordinates,05EB306F-8607-470A-85BC-A44C10D5EEA8*
G04*
G04*
G04 #@! TF.FilePolarity,Positive*
G04*
G01*
G75*
%ADD26C,0.07000*%
%ADD37C,0.07087*%
%ADD38C,0.05906*%
%ADD39R,0.05906X0.05906*%
%ADD40C,0.08000*%
%ADD41C,0.07480*%
%ADD42C,0.05118*%
%ADD43C,0.06299*%
%ADD44C,0.06200*%
%ADD45R,0.06200X0.06200*%
%ADD46R,0.06693X0.06693*%
%ADD47C,0.06693*%
%ADD48R,0.07087X0.07087*%
%ADD49C,0.07400*%
%ADD50C,0.07874*%
%ADD51O,0.07087X0.10236*%
%ADD52R,0.07087X0.10236*%
D26*
X125738Y208308D02*
D03*
X135738D02*
D03*
X145738D02*
D03*
X155737D02*
D03*
X64300Y209048D02*
D03*
X54300D02*
D03*
X44300D02*
D03*
X34300D02*
D03*
X261601Y62825D02*
D03*
Y72825D02*
D03*
Y82825D02*
D03*
Y92825D02*
D03*
X217910Y21371D02*
D03*
X227910D02*
D03*
X237910D02*
D03*
X247910D02*
D03*
D37*
X251606Y192954D02*
D03*
Y162953D02*
D03*
X223202Y200904D02*
D03*
X188949D02*
D03*
X199952Y170366D02*
D03*
Y180366D02*
D03*
D38*
X164246Y56151D02*
D03*
Y66151D02*
D03*
Y76151D02*
D03*
Y86151D02*
D03*
Y96151D02*
D03*
Y106151D02*
D03*
Y116151D02*
D03*
Y126151D02*
D03*
Y136151D02*
D03*
Y146151D02*
D03*
Y156151D02*
D03*
Y166151D02*
D03*
Y176151D02*
D03*
Y186151D02*
D03*
X132750Y56151D02*
D03*
Y66151D02*
D03*
Y76151D02*
D03*
Y86151D02*
D03*
Y96151D02*
D03*
Y106151D02*
D03*
Y116151D02*
D03*
Y126151D02*
D03*
Y136151D02*
D03*
Y146151D02*
D03*
Y156151D02*
D03*
Y166151D02*
D03*
Y176151D02*
D03*
X97245Y96498D02*
D03*
Y77285D02*
D03*
D39*
X132750Y186151D02*
D03*
D40*
X8922Y8163D02*
D03*
X277204Y9364D02*
D03*
X8922Y219523D02*
D03*
X278165Y219763D02*
D03*
D41*
X261971Y132422D02*
D03*
X251972D02*
D03*
X74405Y153608D02*
D03*
X84405D02*
D03*
D42*
X111792Y144513D02*
D03*
Y136639D02*
D03*
X63929Y107621D02*
D03*
X56055D02*
D03*
X22370Y107991D02*
D03*
X30244D02*
D03*
D43*
X115753Y46360D02*
D03*
Y36360D02*
D03*
X83178Y45990D02*
D03*
Y35990D02*
D03*
D44*
X187577Y20630D02*
D03*
X177577D02*
D03*
X167578D02*
D03*
X157578D02*
D03*
X147578D02*
D03*
D45*
X137577D02*
D03*
D46*
X52554Y29515D02*
D03*
D47*
X31754D02*
D03*
D48*
X199952Y160366D02*
D03*
D49*
X187556Y97256D02*
D03*
X227556D02*
D03*
X17647Y180175D02*
D03*
X57647D02*
D03*
X18017Y142417D02*
D03*
X58017D02*
D03*
X227926Y59869D02*
D03*
X187926D02*
D03*
X228428Y131131D02*
D03*
X188428D02*
D03*
D50*
X83710Y195326D02*
D03*
X109300D02*
D03*
Y177610D02*
D03*
X83710D02*
D03*
D51*
X42084Y72825D02*
D03*
X32084Y72864D02*
D03*
D52*
X52084Y72825D02*
D03*
M02*
