G04*
G04 #@! TF.GenerationSoftware,Altium Limited,Altium Designer,22.4.2 (48)*
G04*
G04 Layer_Color=128*
%FSLAX25Y25*%
%MOIN*%
G70*
G04*
G04 #@! TF.SameCoordinates,05EB306F-8607-470A-85BC-A44C10D5EEA8*
G04*
G04*
G04 #@! TF.FilePolarity,Positive*
G04*
G01*
G75*
%ADD54C,0.00500*%
D54*
X249244Y192954D02*
X253969D01*
X251606Y190592D02*
Y195316D01*
X249244Y162953D02*
X253969D01*
X251606Y160591D02*
Y165315D01*
X162474Y56151D02*
X166018D01*
X164246Y54379D02*
Y57923D01*
X162474Y66151D02*
X166018D01*
X164246Y64379D02*
Y67923D01*
X162474Y76151D02*
X166018D01*
X164246Y74379D02*
Y77923D01*
X162474Y86151D02*
X166018D01*
X164246Y84379D02*
Y87923D01*
X162474Y96151D02*
X166018D01*
X164246Y94379D02*
Y97923D01*
X162474Y106151D02*
X166018D01*
X164246Y104379D02*
Y107923D01*
X162474Y116151D02*
X166018D01*
X164246Y114379D02*
Y117923D01*
X162474Y126151D02*
X166018D01*
X164246Y124379D02*
Y127923D01*
X162474Y136151D02*
X166018D01*
X164246Y134379D02*
Y137923D01*
X162474Y146151D02*
X166018D01*
X164246Y144379D02*
Y147923D01*
X162474Y156151D02*
X166018D01*
X164246Y154379D02*
Y157923D01*
X162474Y166151D02*
X166018D01*
X164246Y164379D02*
Y167923D01*
X162474Y176151D02*
X166018D01*
X164246Y174379D02*
Y177923D01*
X162474Y186151D02*
X166018D01*
X164246Y184379D02*
Y187923D01*
X130978Y56151D02*
X134522D01*
X132750Y54379D02*
Y57923D01*
X130978Y66151D02*
X134522D01*
X132750Y64379D02*
Y67923D01*
X130978Y76151D02*
X134522D01*
X132750Y74379D02*
Y77923D01*
X130978Y86151D02*
X134522D01*
X132750Y84379D02*
Y87923D01*
X130978Y96151D02*
X134522D01*
X132750Y94379D02*
Y97923D01*
X130978Y106151D02*
X134522D01*
X132750Y104379D02*
Y107923D01*
X130978Y116151D02*
X134522D01*
X132750Y114379D02*
Y117923D01*
X130978Y126151D02*
X134522D01*
X132750Y124379D02*
Y127923D01*
X130978Y136151D02*
X134522D01*
X132750Y134379D02*
Y137923D01*
X130978Y146151D02*
X134522D01*
X132750Y144379D02*
Y147923D01*
X130978Y156151D02*
X134522D01*
X132750Y154379D02*
Y157923D01*
X130978Y166151D02*
X134522D01*
X132750Y164379D02*
Y167923D01*
X130978Y176151D02*
X134522D01*
X132750Y174379D02*
Y177923D01*
X130978Y186151D02*
X134522D01*
X132750Y184379D02*
Y187923D01*
X4922Y8163D02*
X12922D01*
X8922Y4163D02*
Y12163D01*
X260172Y132422D02*
X263772D01*
X261971Y130622D02*
Y134222D01*
X250171Y132422D02*
X253771D01*
X251972Y130622D02*
Y134222D01*
X221233Y200904D02*
X225170D01*
X223202Y198936D02*
Y202873D01*
X186981Y200904D02*
X190918D01*
X188949Y198936D02*
Y202873D01*
X110217Y144513D02*
X113367D01*
X111792Y142938D02*
Y146088D01*
X110217Y136639D02*
X113367D01*
X111792Y135064D02*
Y138214D01*
X62355Y107621D02*
X65504D01*
X63929Y106046D02*
Y109196D01*
X54481Y107621D02*
X57630D01*
X56055Y106046D02*
Y109196D01*
X20795Y107991D02*
X23945D01*
X22370Y106416D02*
Y109566D01*
X28669Y107991D02*
X31819D01*
X30244Y106416D02*
Y109566D01*
X114179Y46360D02*
X117328D01*
X115753Y44785D02*
Y47935D01*
X114179Y36360D02*
X117328D01*
X115753Y34785D02*
Y37935D01*
X81603Y45990D02*
X84753D01*
X83178Y44415D02*
Y47565D01*
X81603Y35990D02*
X84753D01*
X83178Y34415D02*
Y37565D01*
X72605Y153608D02*
X76205D01*
X74405Y151808D02*
Y155408D01*
X82605Y153608D02*
X86205D01*
X84405Y151808D02*
Y155408D01*
X123937Y208308D02*
X127538D01*
X125738Y206508D02*
Y210108D01*
X133938Y208308D02*
X137538D01*
X135738Y206508D02*
Y210108D01*
X143938Y208308D02*
X147538D01*
X145738Y206508D02*
Y210108D01*
X153937Y208308D02*
X157537D01*
X155737Y206508D02*
Y210108D01*
X62500Y209048D02*
X66100D01*
X64300Y207248D02*
Y210848D01*
X52500Y209048D02*
X56100D01*
X54300Y207248D02*
Y210848D01*
X42500Y209048D02*
X46100D01*
X44300Y207248D02*
Y210848D01*
X32500Y209048D02*
X36100D01*
X34300Y207248D02*
Y210848D01*
X259801Y62825D02*
X263401D01*
X261601Y61025D02*
Y64625D01*
X259801Y72825D02*
X263401D01*
X261601Y71025D02*
Y74625D01*
X259801Y82825D02*
X263401D01*
X261601Y81025D02*
Y84625D01*
X259801Y92825D02*
X263401D01*
X261601Y91025D02*
Y94625D01*
X216110Y21371D02*
X219710D01*
X217910Y19571D02*
Y23171D01*
X226110Y21371D02*
X229710D01*
X227910Y19571D02*
Y23171D01*
X236110Y21371D02*
X239710D01*
X237910Y19571D02*
Y23171D01*
X246110Y21371D02*
X249710D01*
X247910Y19571D02*
Y23171D01*
X185828Y20630D02*
X189328D01*
X187577Y18880D02*
Y22380D01*
X175828Y20630D02*
X179327D01*
X177577Y18880D02*
Y22380D01*
X165828Y20630D02*
X169327D01*
X167578Y18880D02*
Y22380D01*
X155827Y20630D02*
X159327D01*
X157578Y18880D02*
Y22380D01*
X145827Y20630D02*
X149328D01*
X147578Y18880D02*
Y22380D01*
X135828Y20630D02*
X139328D01*
X137577Y18880D02*
Y22380D01*
X50389Y29515D02*
X54720D01*
X52554Y27349D02*
Y31680D01*
X29589Y29515D02*
X33920D01*
X31754Y27349D02*
Y31680D01*
X197983Y160366D02*
X201920D01*
X199952Y158398D02*
Y162335D01*
X197983Y170366D02*
X201920D01*
X199952Y168398D02*
Y172335D01*
X197983Y180366D02*
X201920D01*
X199952Y178398D02*
Y182335D01*
X185786Y97256D02*
X189326D01*
X187556Y95486D02*
Y99026D01*
X225786Y97256D02*
X229326D01*
X227556Y95486D02*
Y99026D01*
X15877Y180175D02*
X19417D01*
X17647Y178405D02*
Y181945D01*
X55877Y180175D02*
X59417D01*
X57647Y178405D02*
Y181945D01*
X16247Y142417D02*
X19787D01*
X18017Y140647D02*
Y144187D01*
X56247Y142417D02*
X59787D01*
X58017Y140647D02*
Y144187D01*
X226156Y59869D02*
X229696D01*
X227926Y58099D02*
Y61639D01*
X186156Y59869D02*
X189696D01*
X187926Y58099D02*
Y61639D01*
X226658Y131131D02*
X230198D01*
X228428Y129360D02*
Y132901D01*
X186658Y131131D02*
X190198D01*
X188428Y129360D02*
Y132901D01*
X81348Y195326D02*
X86071D01*
X83710Y192964D02*
Y197687D01*
X106938Y195326D02*
X111662D01*
X109300Y192964D02*
Y197687D01*
X106938Y177610D02*
X111662D01*
X109300Y175248D02*
Y179972D01*
X81348Y177610D02*
X86071D01*
X83710Y175248D02*
Y179972D01*
X39722Y72825D02*
X44446D01*
X42084Y70463D02*
Y75187D01*
X29722Y72864D02*
X34446D01*
X32084Y70502D02*
Y75226D01*
X49722Y72825D02*
X54446D01*
X52084Y70463D02*
Y75187D01*
X95670Y96498D02*
X98820D01*
X97245Y94923D02*
Y98072D01*
X95670Y77285D02*
X98820D01*
X97245Y75710D02*
Y78860D01*
X273204Y9364D02*
X281204D01*
X277204Y5364D02*
Y13364D01*
X4922Y219523D02*
X12922D01*
X8922Y215523D02*
Y223523D01*
X274165Y219763D02*
X282165D01*
X278165Y215763D02*
Y223763D01*
X148975Y68942D02*
X150944D01*
X149959Y67958D02*
Y69926D01*
X145975Y125395D02*
X147943D01*
X146959Y124410D02*
Y126379D01*
M02*
