M48
;Layer_Color=9474304
;FILE_FORMAT=2:4
INCH,TZ
;TYPE=PLATED
T1F00S00C0.0197
T2F00S00C0.0315
T3F00S00C0.0350
T4F00S00C0.0354
T5F00S00C0.0360
T6F00S00C0.0394
T7F00S00C0.0433
T8F00S00C0.0472
;TYPE=NON_PLATED
T9F00S00C0.0800
%
T01
X14996Y6894
X14696Y12539
T02
X8318Y3599
Y4599
X11575Y4636
Y3636
X9724Y7729
Y9650
X6393Y10762
X5606
X3024Y10799
X2237
X11179Y13664
Y14451
T03
X16758Y2063
X17758
X18758
X15758
X14758
X13758
T04
X16425Y5615
Y6615
Y7615
Y8615
Y9615
Y10615
Y11615
Y12615
Y13615
Y14615
Y15615
X18843Y13113
X18756Y9726
X18793Y5987
X22793
X22756Y9726
X22843Y13113
X13275Y12615
Y11615
Y10615
Y9615
Y8615
Y7615
Y6615
Y5615
Y13615
Y14615
Y15615
X5802Y14242
X1802
X1765Y18017
X5765
X13275Y17615
Y16615
Y18615
X16425
Y17615
Y16615
T05
X21791Y2137
X22791
X23791
X24791
X26160Y6282
Y7282
Y8282
Y9282
X26197Y13242
X25197
X8441Y15361
X7441
X6430Y20905
X5430
X4430
X3430
X12574Y20831
X13574
X14574
X15574
T06
X19995Y16037
Y17037
Y18037
X18895Y20090
X22320
T07
X3175Y2951
X5255
T08
X25161Y16295
X5208Y7282
X4208
X3208Y7286
X8371Y17761
Y19533
X10930
Y17761
X25161Y19295
T09
X27720Y936
X892Y816
Y21952
X27816Y21976
M30
