M48
METRIC,LZ,000.000
;FILE_FORMAT=3:3
;TYPE=PLATED
;Layer: PTH_Through
;EasyEDA v6.5.22, 2023-04-19 18:57:47
;ea0b047a10f34627951ed673aab6b0d1,23e0b72c0ed747e58eec44992e5d9f69,10
;Gerber Generator version 0.2
;Holesize 1 = 0.800 mm
T01C0.800
;Holesize 2 = 0.889 mm
T02C0.889
;Holesize 3 = 0.900 mm
T03C0.900
;Holesize 4 = 0.901 mm
T04C0.901
;Holesize 5 = 0.915 mm
T05C0.915
;Holesize 6 = 1.000 mm
T06C1.000
;Holesize 7 = 1.101 mm
T07C1.101
;Holesize 8 = 1.200 mm
T08C1.200
%
G05
G90
T01
X027305Y051038
X027305Y049038
X018653Y029591
X016653Y029591
X007001Y029464
X009001Y029464
X031496Y009398
X031496Y006858
X024384Y009525
X024384Y006985
X026670Y025427
X026670Y020547
T02
X052324Y003810
X049784Y003810
X047244Y003810
X044704Y003810
X042164Y003810
X039624Y003810
T03
X052197Y024384
X062357Y024384
X006858Y043307
X006858Y053467
X006985Y038100
X017145Y038100
X062357Y014605
X052197Y014605
X062357Y034417
X052197Y034417
T04
X036513Y047498
X036513Y044958
X036513Y042418
X036513Y039878
X036513Y037338
X036513Y034798
X036513Y032258
X036513Y029718
X036513Y027178
X036513Y024638
X036513Y022098
X036513Y019558
X036513Y017018
X036513Y014478
X044513Y047498
X044513Y044958
X044513Y042418
X044513Y039878
X044513Y037338
X044513Y034798
X044513Y032258
X044513Y029718
X044513Y027178
X044513Y024638
X044513Y022098
X044513Y019558
X044513Y017018
X044513Y014478
T05
X070612Y032258
X073152Y032258
X024765Y038100
X027305Y038100
X041148Y057277
X043688Y057277
X046228Y057277
X048768Y057277
X030099Y057023
X027559Y057023
X025019Y057023
X022479Y057023
X074549Y014732
X074549Y017272
X074549Y019812
X074549Y022352
X064389Y003556
X066929Y003556
X069469Y003556
X072009Y003556
T06
X060198Y047593
X060198Y056293
X052578Y042799
X052578Y045339
X052578Y047879
T07
X015265Y007366
X009982Y007366
T08
X072009Y043942
X072009Y051562
X013133Y053431
X019633Y053431
X019633Y048931
X013133Y048931
X012954Y019299
X010414Y019309
X015494Y019299
M30
