G04 Layer: BottomSolderMaskLayer*
G04 EasyEDA v6.5.22, 2023-04-19 18:57:47*
G04 ea0b047a10f34627951ed673aab6b0d1,23e0b72c0ed747e58eec44992e5d9f69,10*
G04 Gerber Generator version 0.2*
G04 Scale: 100 percent, Rotated: No, Reflected: No *
G04 Dimensions in millimeters *
G04 leading zeros omitted , absolute positions ,4 integer and 5 decimal *
%FSLAX45Y45*%
%MOMM*%

%AMMACRO1*1,1,$1,$2,$3*1,1,$1,$4,$5*1,1,$1,0-$2,0-$3*1,1,$1,0-$4,0-$5*20,1,$1,$2,$3,$4,$5,0*20,1,$1,$4,$5,0-$2,0-$3,0*20,1,$1,0-$2,0-$3,0-$4,0-$5,0*20,1,$1,0-$4,0-$5,$2,$3,0*4,1,4,$2,$3,$4,$5,0-$2,0-$3,0-$4,0-$5,$2,$3,0*%
%ADD10C,1.4016*%
%ADD11C,1.7016*%
%ADD12C,2.1032*%
%ADD13C,1.9016*%
%ADD14C,1.8796*%
%ADD15C,1.6764*%
%ADD16MACRO1,0.1016X-0.7874X0.7874X0.7874X0.7874*%
%ADD17MACRO1,0.1016X-0.85X0.85X0.85X0.85*%
%ADD18C,1.8016*%
%ADD19C,2.0032*%
%ADD20MACRO1,0.1016X-0.9X0.9X0.9X0.9*%
%ADD21C,2.0828*%
%ADD22C,2.1016*%
%ADD23MACRO1,0.1016X0.75X0.75X0.75X-0.75*%
%ADD24C,1.6016*%
%ADD25O,1.9015964X2.7015948*%
%ADD26MACRO1,0.1016X0.9X-1.3X-0.9X-1.3*%

%LPD*%
D10*
G01*
X2730500Y5103799D03*
G01*
X2730500Y4903800D03*
G01*
X1865299Y2959100D03*
G01*
X1665300Y2959100D03*
G01*
X700100Y2946400D03*
G01*
X900099Y2946400D03*
D11*
G01*
X3149600Y939800D03*
G01*
X3149600Y685800D03*
G01*
X2438400Y952500D03*
G01*
X2438400Y698500D03*
D12*
G01*
X7061200Y3225800D03*
G01*
X7315200Y3225800D03*
G01*
X2476500Y3810000D03*
G01*
X2730500Y3810000D03*
D13*
G01*
X6019800Y4759299D03*
G01*
X6019800Y5629300D03*
D14*
G01*
X4114825Y5727700D03*
G01*
X4368825Y5727700D03*
G01*
X4622825Y5727700D03*
G01*
X4876825Y5727700D03*
G01*
X3009900Y5702300D03*
G01*
X2755900Y5702300D03*
G01*
X2501900Y5702300D03*
G01*
X2247900Y5702300D03*
G01*
X7454900Y1473200D03*
G01*
X7454900Y1727200D03*
G01*
X7454900Y1981200D03*
G01*
X7454900Y2235200D03*
G01*
X6438900Y355600D03*
G01*
X6692900Y355600D03*
G01*
X6946900Y355600D03*
G01*
X7200900Y355600D03*
D15*
G01*
X5232425Y381000D03*
G01*
X4978425Y381000D03*
G01*
X4724425Y381000D03*
G01*
X4470425Y381000D03*
G01*
X4216425Y381000D03*
D16*
G01*
X3962400Y381000D03*
D17*
G01*
X1526539Y736600D03*
D18*
G01*
X998220Y736600D03*
D19*
G01*
X7200900Y4394200D03*
G01*
X7200900Y5156200D03*
D20*
G01*
X5257800Y4279900D03*
D13*
G01*
X5257800Y4533900D03*
G01*
X5257800Y4787900D03*
D21*
G01*
X5219700Y2438400D03*
G01*
X6235700Y2438400D03*
G01*
X685800Y4330700D03*
G01*
X685800Y5346700D03*
G01*
X698500Y3810000D03*
G01*
X1714500Y3810000D03*
G01*
X6235700Y1460500D03*
G01*
X5219700Y1460500D03*
G01*
X6235674Y3441700D03*
G01*
X5219674Y3441700D03*
D22*
G01*
X1313332Y5343093D03*
G01*
X1963318Y5343093D03*
G01*
X1963318Y4893106D03*
G01*
X1313332Y4893106D03*
D23*
G01*
X3651300Y4749800D03*
D24*
G01*
X3651300Y4495800D03*
G01*
X3651300Y4241800D03*
G01*
X3651300Y3987800D03*
G01*
X3651300Y3733800D03*
G01*
X3651300Y3479800D03*
G01*
X3651300Y3225800D03*
G01*
X3651300Y2971800D03*
G01*
X3651300Y2717800D03*
G01*
X3651300Y2463800D03*
G01*
X3651300Y2209800D03*
G01*
X3651300Y1955800D03*
G01*
X3651300Y1701800D03*
G01*
X3651300Y1447800D03*
G01*
X4451299Y4749800D03*
G01*
X4451299Y4495800D03*
G01*
X4451299Y4241800D03*
G01*
X4451299Y3987800D03*
G01*
X4451299Y3733800D03*
G01*
X4451299Y3479800D03*
G01*
X4451299Y3225800D03*
G01*
X4451299Y2971800D03*
G01*
X4451299Y2717800D03*
G01*
X4451299Y2463800D03*
G01*
X4451299Y2209800D03*
G01*
X4451299Y1955800D03*
G01*
X4451299Y1701800D03*
G01*
X4451299Y1447800D03*
D25*
G01*
X1295425Y1929892D03*
G01*
X1041400Y1930882D03*
D26*
G01*
X1549412Y1929904D03*
D24*
G01*
X2667000Y2542692D03*
G01*
X2667000Y2054707D03*
M02*
