G04 Layer: BottomLayer*
G04 EasyEDA v6.5.22, 2023-04-19 18:57:47*
G04 ea0b047a10f34627951ed673aab6b0d1,23e0b72c0ed747e58eec44992e5d9f69,10*
G04 Gerber Generator version 0.2*
G04 Scale: 100 percent, Rotated: No, Reflected: No *
G04 Dimensions in millimeters *
G04 leading zeros omitted , absolute positions ,4 integer and 5 decimal *
%FSLAX45Y45*%
%MOMM*%

%ADD10C,1.0000*%
%ADD11C,1.3000*%
%ADD12C,1.6000*%
%ADD13C,1.9000*%
%ADD14C,1.8000*%
%ADD15C,1.7780*%
%ADD16C,1.5748*%
%ADD17R,1.5748X1.5748*%
%ADD18R,1.7000X1.7000*%
%ADD19C,1.7000*%
%ADD20R,1.8000X1.8000*%
%ADD21C,1.8796*%
%ADD22C,2.0000*%
%ADD23R,1.5000X1.5000*%
%ADD24C,1.5000*%
%ADD25O,1.7999964X2.5999948*%
%ADD26R,1.8000X2.6000*%
%ADD27C,0.6100*%

%LPD*%
D10*
X4622800Y5727700D02*
G01*
X4864100Y5486400D01*
X5557011Y5486400D01*
X5859272Y5788660D01*
X6099047Y5788660D01*
X6176772Y5710936D01*
X6176772Y4916423D01*
X6019800Y4759197D01*
X5219674Y3441700D02*
G01*
X5102402Y3558971D01*
X5102402Y4406925D01*
X5229377Y4533900D01*
X5257800Y4533900D01*
X3651300Y3987800D02*
G01*
X3268014Y3604513D01*
X3268014Y1075385D01*
X3962400Y381000D01*
X3651300Y3733800D02*
G01*
X3383432Y3465931D01*
X3383432Y1213993D01*
X4216425Y381000D01*
X4470425Y381000D02*
G01*
X4322267Y232841D01*
X2688640Y232841D01*
X2287117Y634364D01*
X2287117Y2786837D01*
X3200196Y3699916D01*
X3651300Y2209800D02*
G01*
X3508933Y2067432D01*
X3508933Y1382115D01*
X4344390Y546658D01*
X4558766Y546658D01*
X4724425Y381000D01*
X7200900Y355600D02*
G01*
X7200900Y1143406D01*
X4955768Y3388537D01*
X3651300Y1955800D02*
G01*
X4835169Y771931D01*
X6530568Y771931D01*
X6946900Y355600D01*
X5219700Y1460500D02*
G01*
X5252745Y1493545D01*
X5586095Y1493545D01*
X3651300Y4241800D02*
G01*
X3199556Y4241800D01*
X2597632Y4843729D01*
X2597632Y5544032D01*
X2755900Y5702300D01*
X3651300Y4495800D02*
G01*
X3009900Y5137200D01*
X3009900Y5702300D01*
X4451299Y4749800D02*
G01*
X4368825Y4832273D01*
X4368825Y5727700D01*
X4451299Y4495800D02*
G01*
X4114825Y4832273D01*
X4114825Y5727700D01*
X5257800Y4279900D02*
G01*
X6019800Y5041900D01*
X6019800Y5629300D01*
X6235700Y2438400D02*
G01*
X7023100Y3225800D01*
X7061200Y3225800D01*
X2667000Y2542692D02*
G01*
X2438400Y2314092D01*
X2438400Y952500D01*
X2667000Y2054707D02*
G01*
X3149600Y1572107D01*
X3149600Y939800D01*
X1041400Y1930882D02*
G01*
X700100Y2272182D01*
X700100Y2946400D01*
X3651300Y3225800D02*
G01*
X3943299Y3225800D01*
X4451299Y2717800D01*
X6235700Y1460500D02*
G01*
X5782360Y1460500D01*
X4525060Y2717800D01*
X4451299Y2717800D01*
X6438900Y355600D02*
G01*
X6601713Y192786D01*
X7269352Y192786D01*
X7454900Y378332D01*
X7454900Y1473200D01*
X7454900Y1473200D02*
G01*
X7619034Y1637334D01*
X7619034Y3976065D01*
X7200900Y4394200D01*
X2474219Y5229430D02*
G01*
X2247900Y5455747D01*
X2247900Y5702300D01*
X698500Y3810000D02*
G01*
X700100Y3808399D01*
X700100Y2946400D01*
X2247900Y5702300D02*
G01*
X2080463Y5702300D01*
X1496263Y5118100D01*
X1303324Y5118100D01*
X685800Y4500575D01*
X685800Y4330700D01*
X685800Y4330700D02*
G01*
X698500Y4318000D01*
X698500Y3810000D01*
X1549425Y1929892D02*
G01*
X1549425Y2643225D01*
X1865299Y2959100D01*
X1526539Y921689D02*
G01*
X1549425Y944575D01*
X1549425Y1929892D01*
X1526539Y736600D02*
G01*
X1526539Y921689D01*
X1963318Y5343093D02*
G01*
X2274697Y5031714D01*
X2455163Y5031714D01*
X5257800Y4787900D02*
G01*
X4965700Y4787900D01*
X4965700Y4775200D01*
X4813300Y4622800D01*
X4813300Y3365500D01*
X4673600Y3225800D01*
X4451299Y3225800D01*
D11*
G01*
X2730500Y5103799D03*
G01*
X2730500Y4903800D03*
G01*
X1865299Y2959100D03*
G01*
X1665300Y2959100D03*
G01*
X700100Y2946400D03*
G01*
X900099Y2946400D03*
D12*
G01*
X3149600Y939800D03*
G01*
X3149600Y685800D03*
G01*
X2438400Y952500D03*
G01*
X2438400Y698500D03*
D13*
G01*
X7061200Y3225800D03*
G01*
X7315200Y3225800D03*
G01*
X2476500Y3810000D03*
G01*
X2730500Y3810000D03*
D14*
G01*
X6019800Y4759299D03*
G01*
X6019800Y5629300D03*
D15*
G01*
X4114825Y5727700D03*
G01*
X4368825Y5727700D03*
G01*
X4622825Y5727700D03*
G01*
X4876825Y5727700D03*
G01*
X3009900Y5702300D03*
G01*
X2755900Y5702300D03*
G01*
X2501900Y5702300D03*
G01*
X2247900Y5702300D03*
G01*
X7454900Y1473200D03*
G01*
X7454900Y1727200D03*
G01*
X7454900Y1981200D03*
G01*
X7454900Y2235200D03*
G01*
X6438900Y355600D03*
G01*
X6692900Y355600D03*
G01*
X6946900Y355600D03*
G01*
X7200900Y355600D03*
D16*
G01*
X5232425Y381000D03*
G01*
X4978425Y381000D03*
G01*
X4724425Y381000D03*
G01*
X4470425Y381000D03*
G01*
X4216425Y381000D03*
D17*
G01*
X3962400Y381000D03*
D18*
G01*
X1526539Y736600D03*
D19*
G01*
X998220Y736600D03*
D14*
G01*
X7200900Y4394200D03*
G01*
X7200900Y5156200D03*
D20*
G01*
X5257800Y4279900D03*
D14*
G01*
X5257800Y4533900D03*
G01*
X5257800Y4787900D03*
D21*
G01*
X5219700Y2438400D03*
G01*
X6235700Y2438400D03*
G01*
X685800Y4330700D03*
G01*
X685800Y5346700D03*
G01*
X698500Y3810000D03*
G01*
X1714500Y3810000D03*
G01*
X6235700Y1460500D03*
G01*
X5219700Y1460500D03*
G01*
X6235674Y3441700D03*
G01*
X5219674Y3441700D03*
D22*
G01*
X1313332Y5343093D03*
G01*
X1963318Y5343093D03*
G01*
X1963318Y4893106D03*
G01*
X1313332Y4893106D03*
D23*
G01*
X3651300Y4749800D03*
D24*
G01*
X3651300Y4495800D03*
G01*
X3651300Y4241800D03*
G01*
X3651300Y3987800D03*
G01*
X3651300Y3733800D03*
G01*
X3651300Y3479800D03*
G01*
X3651300Y3225800D03*
G01*
X3651300Y2971800D03*
G01*
X3651300Y2717800D03*
G01*
X3651300Y2463800D03*
G01*
X3651300Y2209800D03*
G01*
X3651300Y1955800D03*
G01*
X3651300Y1701800D03*
G01*
X3651300Y1447800D03*
G01*
X4451299Y4749800D03*
G01*
X4451299Y4495800D03*
G01*
X4451299Y4241800D03*
G01*
X4451299Y3987800D03*
G01*
X4451299Y3733800D03*
G01*
X4451299Y3479800D03*
G01*
X4451299Y3225800D03*
G01*
X4451299Y2971800D03*
G01*
X4451299Y2717800D03*
G01*
X4451299Y2463800D03*
G01*
X4451299Y2209800D03*
G01*
X4451299Y1955800D03*
G01*
X4451299Y1701800D03*
G01*
X4451299Y1447800D03*
D25*
G01*
X1295425Y1929892D03*
G01*
X1041400Y1930882D03*
D26*
G01*
X1549425Y1929892D03*
D24*
G01*
X2667000Y2542692D03*
G01*
X2667000Y2054707D03*
D27*
G01*
X2455163Y5031714D03*
G01*
X2474213Y5229428D03*
G01*
X5586095Y1493545D03*
G01*
X4955768Y3388537D03*
G01*
X3200196Y3699916D03*
M02*
