G04*
G04 #@! TF.GenerationSoftware,Altium Limited,Altium Designer,22.4.2 (48)*
G04*
G04 Layer_Color=8388736*
%FSLAX44Y44*%
%MOMM*%
G71*
G04*
G04 #@! TF.SameCoordinates,56AA56CD-0744-4D03-8E98-C57D4A394C97*
G04*
G04*
G04 #@! TF.FilePolarity,Negative*
G04*
G01*
G75*
%ADD18C,2.0032*%
%ADD19C,1.7032*%
%ADD20R,1.7032X1.7032*%
%ADD21C,2.2352*%
%ADD22C,2.1032*%
%ADD23C,1.5032*%
%ADD24C,1.8032*%
%ADD25C,1.9812*%
%ADD26C,1.7780*%
%ADD27R,1.7780X1.7780*%
%ADD28R,1.9032X1.9032*%
%ADD29C,1.9032*%
%ADD30R,2.0032X2.0032*%
%ADD31C,2.0828*%
%ADD32C,2.2032*%
%ADD33O,2.0032X2.8032*%
%ADD34R,2.0032X2.8032*%
%ADD35C,1.2032*%
D18*
X1018152Y-1619164D02*
D03*
Y-1695364D02*
D03*
X946004Y-1598969D02*
D03*
X859003D02*
D03*
X886948Y-1676535D02*
D03*
Y-1651136D02*
D03*
D19*
X796256Y-1966643D02*
D03*
Y-1941243D02*
D03*
Y-1915843D02*
D03*
Y-1890443D02*
D03*
Y-1865043D02*
D03*
Y-1839643D02*
D03*
Y-1814243D02*
D03*
Y-1788843D02*
D03*
Y-1763443D02*
D03*
Y-1738043D02*
D03*
Y-1712643D02*
D03*
Y-1687243D02*
D03*
Y-1661843D02*
D03*
Y-1636443D02*
D03*
X716257Y-1966643D02*
D03*
Y-1941243D02*
D03*
Y-1915843D02*
D03*
Y-1890443D02*
D03*
Y-1865043D02*
D03*
Y-1839643D02*
D03*
Y-1814243D02*
D03*
Y-1788843D02*
D03*
Y-1763443D02*
D03*
Y-1738043D02*
D03*
Y-1712643D02*
D03*
Y-1687243D02*
D03*
Y-1661843D02*
D03*
X626073Y-1864162D02*
D03*
Y-1912962D02*
D03*
D20*
X716257Y-1636443D02*
D03*
D21*
X401732Y-2088531D02*
D03*
X1083170Y-2085480D02*
D03*
X401732Y-1551677D02*
D03*
X1085610Y-1551067D02*
D03*
D22*
X1044479Y-1772913D02*
D03*
X1019079D02*
D03*
X568060Y-1719101D02*
D03*
X593460D02*
D03*
D23*
X663023Y-1742203D02*
D03*
Y-1762203D02*
D03*
X541452Y-1835909D02*
D03*
X521452D02*
D03*
X435890Y-1834969D02*
D03*
X455890D02*
D03*
D24*
X673085Y-1991511D02*
D03*
Y-2016911D02*
D03*
X590344Y-1992452D02*
D03*
Y-2017852D02*
D03*
D25*
X698445Y-1580164D02*
D03*
X723845D02*
D03*
X749245D02*
D03*
X774645D02*
D03*
X542393Y-1578284D02*
D03*
X516993D02*
D03*
X491593D02*
D03*
X466193D02*
D03*
X1043539Y-1949691D02*
D03*
Y-1924291D02*
D03*
Y-1898891D02*
D03*
Y-1873491D02*
D03*
X932563Y-2054984D02*
D03*
X957963D02*
D03*
X983363D02*
D03*
X1008764D02*
D03*
D26*
X855518Y-2056864D02*
D03*
X830118D02*
D03*
X804718D02*
D03*
X779318D02*
D03*
X753918D02*
D03*
D27*
X728518D02*
D03*
D28*
X512559Y-2034299D02*
D03*
D29*
X459727D02*
D03*
D30*
X886948Y-1701935D02*
D03*
D31*
X855464Y-1862235D02*
D03*
X957064D02*
D03*
X423895Y-1651622D02*
D03*
X525495D02*
D03*
X424835Y-1747527D02*
D03*
X526435D02*
D03*
X958004Y-1957199D02*
D03*
X856404D02*
D03*
X959279Y-1776194D02*
D03*
X857679D02*
D03*
D32*
X591693Y-1613139D02*
D03*
X656692D02*
D03*
Y-1658138D02*
D03*
X591693D02*
D03*
D33*
X485965Y-1924291D02*
D03*
X460564Y-1924191D02*
D03*
D34*
X511365Y-1924291D02*
D03*
D35*
X759968Y-1934154D02*
D03*
X752348Y-1790763D02*
D03*
M02*
