M48
;Layer_Color=9474304
;FILE_FORMAT=2:5
INCH,LZ
;TYPE=PLATED
T1F00S00C0.01968
T2F00S00C0.03150
T3F00S00C0.03500
T4F00S00C0.03540
T5F00S00C0.03543
T6F00S00C0.03600
T7F00S00C0.03937
T8F00S00C0.04331
T9F00S00C0.04724
;TYPE=NON_PLATED
T10F00S00C0.08000
%
T01
X02992Y-0761478
X02962Y-0705025
T02
X0232419Y-079443
Y-078443
X0264994Y-078406
Y-079406
X0246486Y-0753135
Y-0733922
X021317Y-0722799
X0205296
X0179484Y-0722429
X017161
X0261033Y-0693781
Y-0685907
T03
X0316818Y-0809789
X0326818
X0336818
X0306818
X0296818
X0286818
T04
X0337167Y-0770551
X0336797Y-0733164
X0337669Y-0699289
X0377669
X0376797Y-0733164
X0377167Y-0770551
X0207258Y-0688003
X0167258
X0166888Y-0650245
X0206888
T05
X0313487Y-0774269
Y-0764269
Y-0754269
Y-0744269
Y-0734269
Y-0724269
Y-0714269
Y-0704269
Y-0694269
Y-0684269
Y-0674269
X0281991
Y-0684269
Y-0694269
Y-0704269
Y-0714269
Y-0724269
Y-0734269
Y-0744269
Y-0754269
Y-0764269
Y-0774269
Y-0664269
Y-0654269
Y-0644269
X0313487
Y-0654269
Y-0664269
T06
X0367151Y-0809049
X0377151
X0387151
X0397151
X0410842Y-0767595
Y-0757595
Y-0747595
Y-0737595
X0411212Y-0697997
X0401212
X0233646Y-0676811
X0223646
X021354Y-0621372
X020354
X019354
X018354
X0274978Y-0622112
X0284978
X0294978
X0304978
T07
X0349192Y-0670053
Y-0660053
Y-0650053
X033819Y-0629515
X0372442
T08
X0180995Y-0800905
X0201795
T09
X0400847Y-0667466
X0201325Y-0757595
X0191325
X0181325Y-0757556
X023295Y-065281
Y-0635094
X025854
Y-065281
X0400847Y-0637466
T10
X0426445Y-0821055
X0158162Y-0822256
Y-0610897
X0427406Y-0610656
M30
