G04*
G04 #@! TF.GenerationSoftware,Altium Limited,Altium Designer,22.4.2 (48)*
G04*
G04 Layer_Color=32896*
%FSLAX44Y44*%
%MOMM*%
G71*
G04*
G04 #@! TF.SameCoordinates,56AA56CD-0744-4D03-8E98-C57D4A394C97*
G04*
G04*
G04 #@! TF.FilePolarity,Positive*
G04*
G01*
G75*
G36*
X570865Y-1764304D02*
X571120Y-1765479D01*
X568198Y-1769745D01*
X567928Y-1771655D01*
X567657Y-1773563D01*
X565857D01*
X566132Y-1771123D01*
X566408Y-1768683D01*
X567729Y-1766267D01*
X567798Y-1766143D01*
X567868Y-1766019D01*
X567939Y-1765896D01*
X568011Y-1765774D01*
X568083Y-1765654D01*
X568157Y-1765534D01*
X568230Y-1765417D01*
X568304Y-1765300D01*
X568378Y-1765186D01*
X568453Y-1765074D01*
X568527Y-1764964D01*
X568601Y-1764857D01*
X568674Y-1764752D01*
X568748Y-1764650D01*
X568820Y-1764551D01*
X568892Y-1764455D01*
X568963Y-1764362D01*
X569033Y-1764273D01*
X569102Y-1764187D01*
X569169Y-1764106D01*
X569235Y-1764028D01*
X569300Y-1763954D01*
X569363Y-1763885D01*
X569424Y-1763821D01*
X569483Y-1763761D01*
X569540Y-1763706D01*
X569595Y-1763656D01*
X569647Y-1763612D01*
X569697Y-1763573D01*
X569745Y-1763539D01*
X569789Y-1763512D01*
X569831Y-1763490D01*
X570611Y-1763129D01*
X570865Y-1764304D01*
D02*
G37*
G36*
X570238Y-1761372D02*
X570208Y-1761541D01*
X570121Y-1761760D01*
X569983Y-1762020D01*
X569800Y-1762312D01*
X569579Y-1762627D01*
X569325Y-1762955D01*
X569046Y-1763287D01*
X568746Y-1763614D01*
X567254Y-1765174D01*
X566396Y-1767665D01*
X565539Y-1770155D01*
X565538Y-1771859D01*
X565536Y-1773563D01*
X564253D01*
Y-1769244D01*
X565225Y-1766688D01*
X566198Y-1764134D01*
X567640Y-1762411D01*
X567790Y-1762236D01*
X567942Y-1762066D01*
X568094Y-1761901D01*
X568246Y-1761743D01*
X568396Y-1761593D01*
X568544Y-1761451D01*
X568688Y-1761318D01*
X568828Y-1761196D01*
X568963Y-1761084D01*
X569090Y-1760985D01*
X569211Y-1760898D01*
X569322Y-1760826D01*
X569424Y-1760768D01*
X569515Y-1760725D01*
X569594Y-1760699D01*
X569660Y-1760690D01*
X570238D01*
Y-1761372D01*
D02*
G37*
G36*
X585628Y-1784922D02*
X586821D01*
X590566Y-1777262D01*
X594311Y-1769601D01*
X595727Y-1768553D01*
X597143Y-1767505D01*
X601018D01*
Y-1778864D01*
X602246D01*
X602418Y-1776403D01*
X602591Y-1773942D01*
X602659Y-1776414D01*
X602728Y-1778886D01*
X607857Y-1774299D01*
Y-1778864D01*
X609476D01*
X609722Y-1777728D01*
X609968Y-1776592D01*
X618117D01*
Y-1781136D01*
X609567D01*
Y-1779621D01*
X607857D01*
Y-1784187D01*
X605319Y-1781917D01*
X602780Y-1779647D01*
X602609Y-1782095D01*
X602437Y-1784543D01*
X602300Y-1779621D01*
X601018D01*
Y-1790980D01*
X597598D01*
Y-1773563D01*
X597188D01*
X597023Y-1773731D01*
X596708Y-1774214D01*
X596262Y-1774976D01*
X595703Y-1775986D01*
X595049Y-1777207D01*
X594319Y-1778608D01*
X593531Y-1780153D01*
X592704Y-1781809D01*
X592494Y-1782233D01*
X592285Y-1782652D01*
X592077Y-1783066D01*
X591871Y-1783475D01*
X591667Y-1783879D01*
X591464Y-1784276D01*
X591264Y-1784665D01*
X591067Y-1785048D01*
X590873Y-1785422D01*
X590682Y-1785788D01*
X590495Y-1786144D01*
X590312Y-1786491D01*
X590133Y-1786828D01*
X589959Y-1787153D01*
X589790Y-1787467D01*
X589625Y-1787769D01*
X589466Y-1788059D01*
X589313Y-1788335D01*
X589166Y-1788598D01*
X589026Y-1788847D01*
X588892Y-1789081D01*
X588765Y-1789299D01*
X588645Y-1789502D01*
X588533Y-1789688D01*
X588429Y-1789857D01*
X588333Y-1790009D01*
X588246Y-1790142D01*
X588167Y-1790257D01*
X588098Y-1790352D01*
X588038Y-1790428D01*
X587988Y-1790484D01*
X587948Y-1790518D01*
X587759Y-1790611D01*
X587483Y-1790698D01*
X587133Y-1790776D01*
X586721Y-1790845D01*
X586262Y-1790901D01*
X585767Y-1790944D01*
X585251Y-1790971D01*
X584727Y-1790980D01*
X582186D01*
X582304Y-1779432D01*
X582422Y-1767884D01*
X584025Y-1767649D01*
X585628Y-1767414D01*
Y-1784922D01*
D02*
G37*
G36*
X621265Y-1769074D02*
X622392Y-1770644D01*
Y-1786536D01*
X621973Y-1787921D01*
X621555Y-1789306D01*
X620199Y-1790143D01*
X618844Y-1790980D01*
X603582D01*
Y-1784922D01*
X618972D01*
Y-1773563D01*
X603582D01*
Y-1767505D01*
X620139D01*
X621265Y-1769074D01*
D02*
G37*
G36*
X550467Y-1767608D02*
X551052Y-1767617D01*
X551630Y-1767628D01*
X552200Y-1767640D01*
X552760Y-1767654D01*
X553309Y-1767669D01*
X553844Y-1767685D01*
X554363Y-1767703D01*
X554865Y-1767722D01*
X555349Y-1767742D01*
X555811Y-1767763D01*
X556250Y-1767784D01*
X556665Y-1767807D01*
X557053Y-1767830D01*
X557413Y-1767854D01*
X557742Y-1767878D01*
X558040Y-1767903D01*
X558303Y-1767928D01*
X558531Y-1767953D01*
X558721Y-1767978D01*
X558872Y-1768004D01*
X558982Y-1768029D01*
X559008Y-1768038D01*
X559962Y-1768364D01*
X560861Y-1770389D01*
X561761Y-1772415D01*
X561618Y-1780251D01*
X561475Y-1788088D01*
X560466Y-1789534D01*
X559456Y-1790980D01*
X542879D01*
Y-1784922D01*
X558306D01*
X558181Y-1779432D01*
X558055Y-1773942D01*
X542879Y-1773528D01*
Y-1767505D01*
X550467Y-1767608D01*
D02*
G37*
G36*
X571317Y-1766806D02*
X571423Y-1766963D01*
X571494Y-1767195D01*
X571521Y-1767479D01*
Y-1768209D01*
X580284Y-1768641D01*
X580417Y-1771481D01*
X580550Y-1774321D01*
X572803D01*
Y-1791738D01*
X569383D01*
Y-1773563D01*
X568145D01*
X568595Y-1771280D01*
X569044Y-1768996D01*
X569950Y-1767872D01*
X570044Y-1767758D01*
X570139Y-1767646D01*
X570234Y-1767539D01*
X570328Y-1767435D01*
X570421Y-1767337D01*
X570513Y-1767245D01*
X570602Y-1767158D01*
X570688Y-1767078D01*
X570770Y-1767005D01*
X570848Y-1766940D01*
X570921Y-1766884D01*
X570988Y-1766837D01*
X571049Y-1766799D01*
X571103Y-1766771D01*
X571150Y-1766754D01*
X571189Y-1766748D01*
X571317Y-1766806D01*
D02*
G37*
G36*
X556024Y-1795902D02*
X556345Y-1796660D01*
X558376Y-1796677D01*
X560406Y-1796694D01*
Y-1795524D01*
X561618D01*
X561867Y-1795534D01*
X562110Y-1795564D01*
X562342Y-1795610D01*
X562557Y-1795672D01*
X562747Y-1795747D01*
X562907Y-1795833D01*
X563032Y-1795927D01*
X563113Y-1796029D01*
X563171Y-1796158D01*
X563224Y-1796334D01*
X563273Y-1796548D01*
X563315Y-1796793D01*
X563350Y-1797060D01*
X563376Y-1797343D01*
X563393Y-1797632D01*
X563399Y-1797922D01*
Y-1799310D01*
X559551D01*
Y-1797796D01*
X558646D01*
X558882Y-1798473D01*
X559118Y-1799151D01*
X558373Y-1799724D01*
X558213Y-1799843D01*
X558042Y-1799962D01*
X557866Y-1800077D01*
X557690Y-1800186D01*
X557520Y-1800285D01*
X557360Y-1800372D01*
X557217Y-1800442D01*
X557095Y-1800493D01*
X556562Y-1800690D01*
X556321Y-1800000D01*
X556257Y-1799861D01*
X556166Y-1799732D01*
X556051Y-1799615D01*
X555918Y-1799513D01*
X555771Y-1799428D01*
X555614Y-1799364D01*
X555451Y-1799324D01*
X555287Y-1799310D01*
X554493D01*
X554277Y-1798364D01*
X554061Y-1797417D01*
X553994Y-1799310D01*
X548508D01*
X548259Y-1798364D01*
X548009Y-1797417D01*
X547760Y-1798364D01*
X547510Y-1799310D01*
X546370D01*
X545987Y-1797417D01*
X545181Y-1798958D01*
X544375Y-1800498D01*
X543841Y-1800377D01*
X543597Y-1800323D01*
X543329Y-1800264D01*
X543069Y-1800208D01*
X542850Y-1800162D01*
X542392Y-1800067D01*
X542666Y-1796663D01*
X544803Y-1796454D01*
X545024Y-1796433D01*
X545245Y-1796413D01*
X545466Y-1796394D01*
X545684Y-1796376D01*
X545897Y-1796360D01*
X546106Y-1796344D01*
X546307Y-1796331D01*
X546501Y-1796318D01*
X546685Y-1796308D01*
X546857Y-1796298D01*
X547018Y-1796291D01*
X547164Y-1796286D01*
X547295Y-1796282D01*
X547409Y-1796281D01*
X547505Y-1796281D01*
X547582Y-1796284D01*
X547780Y-1796295D01*
X548101Y-1796312D01*
X548526Y-1796334D01*
X549039Y-1796360D01*
X549624Y-1796390D01*
X550264Y-1796422D01*
X550943Y-1796456D01*
X551643Y-1796491D01*
X555063Y-1796660D01*
X555383Y-1795902D01*
X555704Y-1795146D01*
X556024Y-1795902D01*
D02*
G37*
G36*
X607718D02*
X608071Y-1796660D01*
X613842Y-1796762D01*
Y-1795435D01*
X614266Y-1795898D01*
X614390Y-1795996D01*
X614582Y-1796094D01*
X614833Y-1796192D01*
X615131Y-1796285D01*
X615469Y-1796372D01*
X615835Y-1796449D01*
X616221Y-1796514D01*
X616617Y-1796563D01*
X618544Y-1796765D01*
Y-1795524D01*
X619934Y-1795584D01*
X620078Y-1795592D01*
X620224Y-1795604D01*
X620370Y-1795619D01*
X620515Y-1795637D01*
X620659Y-1795658D01*
X620801Y-1795683D01*
X620938Y-1795709D01*
X621072Y-1795738D01*
X621200Y-1795769D01*
X621321Y-1795802D01*
X621435Y-1795836D01*
X621540Y-1795872D01*
X621636Y-1795909D01*
X621722Y-1795947D01*
X621796Y-1795986D01*
X621857Y-1796025D01*
X622392Y-1796407D01*
Y-1799310D01*
X613842D01*
X613836Y-1798364D01*
X613829Y-1797417D01*
X613460Y-1798450D01*
X613091Y-1799482D01*
X612825Y-1798450D01*
X612560Y-1797417D01*
X612310Y-1798364D01*
X612061Y-1799310D01*
X609211D01*
X608996Y-1798364D01*
X608780Y-1797417D01*
X608712Y-1799310D01*
X606895Y-1799257D01*
X605079Y-1799204D01*
X605934Y-1798553D01*
X606789Y-1797902D01*
X605292Y-1797796D01*
Y-1796105D01*
X606961Y-1796878D01*
X607163Y-1796012D01*
X607365Y-1795146D01*
X607718Y-1795902D01*
D02*
G37*
G36*
X591613Y-1796780D02*
X592561Y-1796720D01*
X593510Y-1796660D01*
X593813Y-1799310D01*
X584417D01*
X584201Y-1798364D01*
X583985Y-1797417D01*
X583918Y-1799310D01*
X580570D01*
X580354Y-1798364D01*
X580138Y-1797417D01*
X580070Y-1799310D01*
X576722D01*
X576473Y-1798364D01*
X576223Y-1797417D01*
X575974Y-1798364D01*
X575724Y-1799310D01*
X570666D01*
X570659Y-1798364D01*
X570653Y-1797417D01*
X570284Y-1798450D01*
X569915Y-1799482D01*
X569683Y-1798450D01*
X569451Y-1797417D01*
X569383Y-1799310D01*
X566035D01*
X565785Y-1798364D01*
X565536Y-1797417D01*
X565286Y-1798364D01*
X565228Y-1798554D01*
X565159Y-1798731D01*
X565080Y-1798892D01*
X564995Y-1799032D01*
X564907Y-1799148D01*
X564817Y-1799235D01*
X564729Y-1799291D01*
X564646Y-1799310D01*
X564253D01*
Y-1797140D01*
X565002Y-1796762D01*
X565185Y-1796692D01*
X565419Y-1796637D01*
X565694Y-1796597D01*
X566001Y-1796573D01*
X566330Y-1796566D01*
X566671Y-1796576D01*
X567016Y-1796603D01*
X567353Y-1796649D01*
X568956Y-1796913D01*
Y-1796344D01*
X569007Y-1796124D01*
X569144Y-1795943D01*
X569348Y-1795821D01*
X569597Y-1795776D01*
X569846Y-1795817D01*
X570050Y-1795927D01*
X570188Y-1796089D01*
X570238Y-1796287D01*
Y-1796799D01*
X574300Y-1796660D01*
X574614Y-1795902D01*
X574927Y-1795146D01*
X574934Y-1796106D01*
X574941Y-1797067D01*
X575948Y-1796620D01*
X576955Y-1796172D01*
X577697Y-1797485D01*
X578438Y-1798799D01*
X578811Y-1797729D01*
X579184Y-1796660D01*
X590972D01*
X591286Y-1795902D01*
X591600Y-1795146D01*
X591613Y-1796780D01*
D02*
G37*
G36*
X597918Y-1795536D02*
X598092Y-1795595D01*
X598327Y-1795748D01*
X598593Y-1795972D01*
X598860Y-1796243D01*
X599480Y-1796938D01*
X601745Y-1796568D01*
X604010Y-1796197D01*
Y-1797753D01*
Y-1799310D01*
X601516D01*
X601267Y-1798364D01*
X601018Y-1797417D01*
X600768Y-1798364D01*
X600519Y-1799310D01*
X597598D01*
Y-1795524D01*
X597918Y-1795536D01*
D02*
G37*
G36*
X596529Y-1796281D02*
X596793Y-1797038D01*
X595460D01*
Y-1798174D01*
Y-1799310D01*
X594605D01*
Y-1797038D01*
X594178D01*
X594012Y-1796979D01*
X593876Y-1796816D01*
X593784Y-1796575D01*
X593750Y-1796281D01*
Y-1795524D01*
X596265D01*
X596529Y-1796281D01*
D02*
G37*
%LPC*%
G36*
X614127Y-1797796D02*
X614386Y-1798253D01*
X614644Y-1798711D01*
X615766Y-1797915D01*
X614946Y-1797856D01*
X614127Y-1797796D01*
D02*
G37*
G36*
X572234D02*
X572492Y-1798253D01*
X572750Y-1798711D01*
X573311Y-1798313D01*
X573872Y-1797915D01*
X573053Y-1797856D01*
X572234Y-1797796D01*
D02*
G37*
%LPD*%
M02*
