G04*
G04 #@! TF.GenerationSoftware,Altium Limited,Altium Designer,22.4.2 (48)*
G04*
G04 Layer_Color=65535*
%FSLAX44Y44*%
%MOMM*%
G71*
G04*
G04 #@! TF.SameCoordinates,56AA56CD-0744-4D03-8E98-C57D4A394C97*
G04*
G04*
G04 #@! TF.FilePolarity,Positive*
G04*
G01*
G75*
%ADD10C,0.2540*%
%ADD11C,0.3000*%
%ADD12C,0.6000*%
%ADD13C,0.4000*%
%ADD14C,0.2007*%
%ADD15C,0.2032*%
%ADD16C,0.2030*%
%ADD17C,0.1524*%
G36*
X679533Y-1770143D02*
X677934Y-1771817D01*
X674129Y-1774454D01*
X669873Y-1776274D01*
X665338Y-1777203D01*
X660708D01*
X656173Y-1776274D01*
X651917Y-1774454D01*
X648112Y-1771817D01*
X646513Y-1770143D01*
Y-1770143D01*
X679533D01*
X679533Y-1770143D01*
D02*
G37*
G36*
X465504Y-1820058D02*
X468142Y-1823862D01*
X469962Y-1828119D01*
X470891Y-1832654D01*
Y-1837283D01*
X469962Y-1841818D01*
X468142Y-1846075D01*
X465504Y-1849879D01*
X463831Y-1851478D01*
Y-1818459D01*
X465504Y-1820058D01*
D02*
G37*
G36*
X513512Y-1852419D02*
X513512D01*
X511838Y-1850820D01*
X509201Y-1847015D01*
X507381Y-1842759D01*
X506452Y-1838224D01*
Y-1833594D01*
X507381Y-1829059D01*
X509201Y-1824803D01*
X511838Y-1820998D01*
X513512Y-1819399D01*
X513512Y-1819399D01*
Y-1852419D01*
D02*
G37*
G36*
X983490Y-2069094D02*
X983559Y-2069114D01*
X983639Y-2069146D01*
X983728Y-2069189D01*
X983825Y-2069244D01*
X983931Y-2069309D01*
X984042Y-2069383D01*
X984160Y-2069467D01*
X984282Y-2069559D01*
X984409Y-2069658D01*
X984538Y-2069765D01*
X984670Y-2069878D01*
X984803Y-2069996D01*
X984936Y-2070120D01*
X985069Y-2070247D01*
X985200Y-2070379D01*
X986462Y-2071670D01*
X987312Y-2073587D01*
X988163Y-2075503D01*
Y-2078743D01*
X987041D01*
X987039Y-2077465D01*
X987038Y-2076187D01*
X986288Y-2074319D01*
X985538Y-2072451D01*
X984232Y-2071281D01*
X983970Y-2071036D01*
X983725Y-2070786D01*
X983503Y-2070540D01*
X983310Y-2070305D01*
X983150Y-2070086D01*
X983029Y-2069891D01*
X982953Y-2069726D01*
X982926Y-2069600D01*
Y-2069088D01*
X983432D01*
X983490Y-2069094D01*
D02*
G37*
G36*
X983283Y-2071188D02*
X983358Y-2071225D01*
X983443Y-2071279D01*
X983537Y-2071350D01*
X983639Y-2071436D01*
X983747Y-2071536D01*
X983862Y-2071650D01*
X983981Y-2071775D01*
X984104Y-2071911D01*
X984231Y-2072058D01*
X984359Y-2072213D01*
X984489Y-2072376D01*
X984619Y-2072546D01*
X984748Y-2072721D01*
X984875Y-2072901D01*
X985000Y-2073085D01*
X985122Y-2073271D01*
X986278Y-2075082D01*
X986760Y-2078743D01*
X985185D01*
X984711Y-2075879D01*
X982155Y-2072680D01*
X982600Y-2070917D01*
X983283Y-2071188D01*
D02*
G37*
G36*
X972266Y-2074483D02*
X972369Y-2083144D01*
X972472Y-2091806D01*
X970249D01*
X969790Y-2091799D01*
X969338Y-2091778D01*
X968906Y-2091746D01*
X968504Y-2091704D01*
X968143Y-2091652D01*
X967837Y-2091593D01*
X967595Y-2091528D01*
X967430Y-2091459D01*
X967374Y-2091414D01*
X967299Y-2091335D01*
X967205Y-2091222D01*
X967093Y-2091077D01*
X966964Y-2090901D01*
X966820Y-2090697D01*
X966660Y-2090464D01*
X966487Y-2090205D01*
X966300Y-2089922D01*
X966101Y-2089615D01*
X965891Y-2089285D01*
X965670Y-2088935D01*
X965440Y-2088566D01*
X965201Y-2088179D01*
X964954Y-2087775D01*
X964701Y-2087356D01*
X964441Y-2086924D01*
X964176Y-2086479D01*
X963907Y-2086024D01*
X963635Y-2085559D01*
X963361Y-2085087D01*
X963269Y-2084928D01*
X962545Y-2083685D01*
X961856Y-2082526D01*
X961217Y-2081476D01*
X960645Y-2080560D01*
X960155Y-2079803D01*
X959765Y-2079231D01*
X959489Y-2078869D01*
X959345Y-2078743D01*
X958987D01*
Y-2091806D01*
X955994D01*
Y-2083286D01*
X954872D01*
X954812Y-2085132D01*
X954753Y-2086978D01*
X954602Y-2085142D01*
X954452Y-2083306D01*
X950010Y-2086710D01*
Y-2083286D01*
X948513D01*
Y-2084422D01*
X941032D01*
Y-2081015D01*
X948163D01*
X948378Y-2081866D01*
X948593Y-2082718D01*
X950010D01*
Y-2079294D01*
X952254Y-2081015D01*
X954498Y-2082735D01*
X954618Y-2079027D01*
X954920Y-2082718D01*
X955994D01*
Y-2074199D01*
X959385D01*
X960624Y-2074985D01*
X961863Y-2075771D01*
X965139Y-2081517D01*
X968416Y-2087262D01*
X969460D01*
Y-2074131D01*
X972266Y-2074483D01*
D02*
G37*
G36*
X1006865Y-2078717D02*
X1000226Y-2078872D01*
X993587Y-2079027D01*
X993477Y-2083144D01*
X993367Y-2087262D01*
X1006865D01*
Y-2089534D01*
Y-2091806D01*
X992360D01*
X991477Y-2090721D01*
X990594Y-2089636D01*
X990344Y-2077881D01*
X991131Y-2076362D01*
X991918Y-2074843D01*
X992752Y-2074599D01*
X992836Y-2074579D01*
X992956Y-2074561D01*
X993111Y-2074541D01*
X993300Y-2074523D01*
X993520Y-2074504D01*
X993771Y-2074485D01*
X994050Y-2074467D01*
X994356Y-2074449D01*
X994687Y-2074431D01*
X995166Y-2074408D01*
X995683Y-2074387D01*
X996094Y-2074371D01*
X996522Y-2074357D01*
X996967Y-2074343D01*
X997426Y-2074330D01*
X997898Y-2074318D01*
X998382Y-2074307D01*
X998875Y-2074297D01*
X999377Y-2074288D01*
X999885Y-2074281D01*
X1000226Y-2074276D01*
X1006865Y-2074199D01*
Y-2078717D01*
D02*
G37*
G36*
X953750Y-2078743D02*
X940284D01*
Y-2087262D01*
X953750D01*
Y-2089534D01*
Y-2091806D01*
X940396D01*
X939210Y-2091178D01*
X938024Y-2090550D01*
X937658Y-2089511D01*
X937292Y-2088472D01*
Y-2076553D01*
X939263Y-2074199D01*
X953750D01*
Y-2078743D01*
D02*
G37*
G36*
X982169Y-2073649D02*
X982270Y-2073698D01*
X982393Y-2073776D01*
X982533Y-2073879D01*
X982686Y-2074004D01*
X982848Y-2074147D01*
X983013Y-2074305D01*
X983178Y-2074474D01*
X983971Y-2075317D01*
X984364Y-2077030D01*
X984758Y-2078743D01*
X983674D01*
Y-2085558D01*
Y-2092374D01*
X980682D01*
Y-2079311D01*
X973904D01*
X974136Y-2075051D01*
X977970Y-2074889D01*
X981804Y-2074727D01*
Y-2074179D01*
X981827Y-2073967D01*
X981889Y-2073792D01*
X981982Y-2073674D01*
X982095Y-2073631D01*
X982169Y-2073649D01*
D02*
G37*
G36*
X995924Y-2095497D02*
X996205Y-2096065D01*
X999197Y-2095938D01*
X1000404Y-2095887D01*
X1001476Y-2095841D01*
X1002297Y-2095804D01*
X1002751Y-2095783D01*
X1002818Y-2095781D01*
X1002902Y-2095781D01*
X1003002Y-2095782D01*
X1003116Y-2095784D01*
X1003385Y-2095794D01*
X1003697Y-2095809D01*
X1004042Y-2095829D01*
X1004412Y-2095853D01*
X1004602Y-2095866D01*
X1004795Y-2095880D01*
X1004989Y-2095895D01*
X1005182Y-2095911D01*
X1007052Y-2096067D01*
X1007292Y-2098621D01*
X1006892Y-2098692D01*
X1006699Y-2098727D01*
X1006472Y-2098769D01*
X1006237Y-2098813D01*
X1006024Y-2098853D01*
X1005556Y-2098944D01*
X1004851Y-2097789D01*
X1004146Y-2096633D01*
X1003979Y-2097343D01*
X1003811Y-2098053D01*
X1002813D01*
X1002377Y-2096633D01*
X1001940Y-2098053D01*
X997140D01*
X997081Y-2096633D01*
X996704Y-2098053D01*
X996009D01*
X995722Y-2098094D01*
X995456Y-2098205D01*
X995240Y-2098369D01*
X995104Y-2098570D01*
X994893Y-2099088D01*
X994427Y-2098940D01*
X994320Y-2098902D01*
X994194Y-2098849D01*
X994055Y-2098784D01*
X993906Y-2098710D01*
X993752Y-2098628D01*
X993598Y-2098542D01*
X993449Y-2098452D01*
X993308Y-2098363D01*
X992656Y-2097934D01*
X993070Y-2096917D01*
X992278D01*
Y-2098053D01*
X988911D01*
Y-2097012D01*
X988931Y-2096577D01*
X988984Y-2096165D01*
X989063Y-2095821D01*
X989160Y-2095592D01*
X989232Y-2095516D01*
X989341Y-2095445D01*
X989481Y-2095381D01*
X989648Y-2095324D01*
X989835Y-2095278D01*
X990038Y-2095243D01*
X990251Y-2095221D01*
X990470Y-2095213D01*
X991529D01*
Y-2096091D01*
X993306Y-2096078D01*
X995083Y-2096065D01*
X995363Y-2095497D01*
X995644Y-2094929D01*
X995924Y-2095497D01*
D02*
G37*
G36*
X950793Y-2096228D02*
X952254Y-2095649D01*
Y-2096917D01*
X951599Y-2096957D01*
X950945Y-2096997D01*
X952441Y-2097973D01*
X949261Y-2098053D01*
X949202Y-2096633D01*
X948825Y-2098053D01*
X946331D01*
X946113Y-2097343D01*
X945895Y-2096633D01*
X945663Y-2097407D01*
X945430Y-2098181D01*
X945107Y-2097407D01*
X944784Y-2096633D01*
X944773Y-2098053D01*
X937292D01*
Y-2095876D01*
X937759Y-2095589D01*
X937813Y-2095560D01*
X937878Y-2095531D01*
X937953Y-2095502D01*
X938037Y-2095475D01*
X938129Y-2095448D01*
X938229Y-2095422D01*
X938335Y-2095397D01*
X938447Y-2095374D01*
X938563Y-2095352D01*
X938684Y-2095332D01*
X938808Y-2095314D01*
X938934Y-2095298D01*
X939061Y-2095284D01*
X939189Y-2095273D01*
X939316Y-2095264D01*
X939442Y-2095258D01*
X940658Y-2095213D01*
Y-2096144D01*
X942345Y-2095993D01*
X942691Y-2095956D01*
X943029Y-2095907D01*
X943349Y-2095849D01*
X943645Y-2095784D01*
X943906Y-2095714D01*
X944125Y-2095641D01*
X944293Y-2095567D01*
X944402Y-2095494D01*
X944773Y-2095146D01*
Y-2096142D01*
X949822Y-2096065D01*
X950132Y-2095497D01*
X950440Y-2094929D01*
X950793Y-2096228D01*
D02*
G37*
G36*
X958987Y-2096633D02*
Y-2098053D01*
X956431D01*
X955994Y-2096633D01*
X955558Y-2098053D01*
X953376D01*
Y-2095718D01*
X957339Y-2096274D01*
X957883Y-2095752D01*
X958116Y-2095549D01*
X958348Y-2095381D01*
X958554Y-2095266D01*
X958706Y-2095222D01*
X958987Y-2095213D01*
Y-2096633D01*
D02*
G37*
G36*
X979098Y-2095497D02*
X979372Y-2096065D01*
X981149Y-2096117D01*
X982926Y-2096169D01*
Y-2095786D01*
X982971Y-2095637D01*
X983091Y-2095515D01*
X983269Y-2095433D01*
X983487Y-2095402D01*
X983705Y-2095436D01*
X983883Y-2095528D01*
X984004Y-2095663D01*
X984048Y-2095829D01*
Y-2096255D01*
X985451Y-2096057D01*
X985746Y-2096023D01*
X986047Y-2096002D01*
X986346Y-2095995D01*
X986634Y-2096000D01*
X986902Y-2096018D01*
X987143Y-2096048D01*
X987348Y-2096089D01*
X987508Y-2096142D01*
X988163Y-2096426D01*
Y-2098053D01*
X987820D01*
X987747Y-2098038D01*
X987670Y-2097997D01*
X987591Y-2097931D01*
X987514Y-2097844D01*
X987439Y-2097739D01*
X987371Y-2097619D01*
X987310Y-2097486D01*
X987259Y-2097343D01*
X987041Y-2096633D01*
X986604Y-2098053D01*
X983674D01*
X983645Y-2097343D01*
X983615Y-2096633D01*
X983210Y-2098181D01*
X982563Y-2096633D01*
X982558Y-2097343D01*
X982552Y-2098053D01*
X978126D01*
X977690Y-2096633D01*
X977471Y-2097343D01*
X977253Y-2098053D01*
X974323D01*
X974293Y-2097343D01*
X974264Y-2096633D01*
X974075Y-2097343D01*
X973887Y-2098053D01*
X970956D01*
X970927Y-2097343D01*
X970897Y-2096633D01*
X970709Y-2097343D01*
X970520Y-2098053D01*
X962298D01*
X962563Y-2096065D01*
X963394Y-2096110D01*
X964223Y-2096155D01*
X964229Y-2095542D01*
X964235Y-2094929D01*
X964784Y-2096065D01*
X975098D01*
X975751Y-2097669D01*
X976400Y-2096684D01*
X977049Y-2095699D01*
X978812Y-2096371D01*
X978817Y-2095650D01*
X978823Y-2094929D01*
X979098Y-2095497D01*
D02*
G37*
G36*
X962353Y-2095781D02*
X962324Y-2096002D01*
X962243Y-2096182D01*
X962124Y-2096304D01*
X961979Y-2096349D01*
X961605D01*
Y-2097201D01*
Y-2098053D01*
X960857D01*
Y-2096349D01*
X959691D01*
X960153Y-2095213D01*
X962353D01*
Y-2095781D01*
D02*
G37*
%LPC*%
G36*
X944523Y-2096917D02*
X943806Y-2096962D01*
X943089Y-2097007D01*
X944071Y-2097603D01*
X944523Y-2096917D01*
D02*
G37*
G36*
X981180D02*
X980464Y-2096962D01*
X979747Y-2097007D01*
X980238Y-2097305D01*
X980729Y-2097603D01*
X981180Y-2096917D01*
D02*
G37*
%LPD*%
D10*
X1030852Y-1657264D02*
G03*
X1030852Y-1657264I-12700J0D01*
G01*
X1078152D02*
G03*
X1078152Y-1657264I-60000J0D01*
G01*
X987672Y-1695364D02*
G03*
X1048632Y-1695364I30480J-1041D01*
G01*
Y-1695364D02*
G03*
X987672Y-1695364I-30480J38099D01*
G01*
X749906Y-1624530D02*
G03*
X762606Y-1624530I6350J0D01*
G01*
X1057179Y-1755133D02*
G03*
X1057179Y-1790693I-22861J-17780D01*
G01*
X606160Y-1701321D02*
G03*
X606160Y-1736881I-22861J-17780D01*
G01*
X874098Y-1652406D02*
G03*
X874098Y-1700666I16846J-24130D01*
G01*
X641236Y-1635156D02*
G03*
X641236Y-1635156I-17501J0D01*
G01*
X631229D02*
G03*
X631229Y-1635156I-7493J0D01*
G01*
X648459Y-1856482D02*
G03*
X603290Y-1856482I-22585J-76D01*
G01*
X603289Y-1918437D02*
G03*
X648465Y-1920069I22590J-745D01*
G01*
X1038472Y-1702984D02*
Y-1687744D01*
X1030852Y-1695364D02*
X1046092D01*
X729756Y-1624543D02*
X749907D01*
X729756Y-1978543D02*
Y-1624543D01*
Y-1978543D02*
X782756D01*
Y-1624543D01*
X762607D02*
X782756D01*
X1057179Y-1790693D02*
Y-1755133D01*
X886096Y-1612969D02*
Y-1584969D01*
X876503Y-1612969D02*
Y-1584969D01*
Y-1612969D02*
X928503D01*
Y-1584969D01*
X876503D02*
X928503D01*
X678022Y-1747202D02*
Y-1737042D01*
X672863Y-1742203D02*
X683023D01*
X536454Y-1850908D02*
X546614D01*
X541452Y-1855909D02*
Y-1845749D01*
X430729Y-1819970D02*
X440889D01*
X435890Y-1825129D02*
Y-1814969D01*
X606160Y-1736881D02*
Y-1701321D01*
X535165Y-2062366D02*
Y-2058048D01*
X525957Y-1999501D02*
X534149D01*
X535165Y-2064017D01*
X526529D02*
X535165D01*
X438137D02*
Y-2000009D01*
Y-2064017D02*
X526529D01*
X438137Y-2000009D02*
X525957Y-1999501D01*
X901947Y-1696335D02*
Y-1656737D01*
X874768Y-1874173D02*
Y-1850297D01*
X937760D01*
Y-1874173D02*
Y-1850297D01*
X874768Y-1874173D02*
X937760D01*
X443200Y-1663560D02*
Y-1639684D01*
X506191D01*
Y-1663560D02*
Y-1639684D01*
X443200Y-1663560D02*
X506191D01*
X444139Y-1759465D02*
Y-1735589D01*
X507131D01*
Y-1759465D02*
Y-1735589D01*
X444139Y-1759465D02*
X507131D01*
X938700Y-1969137D02*
Y-1945261D01*
X875708Y-1969137D02*
X938700D01*
X875708D02*
Y-1945261D01*
X938700D01*
X939975Y-1788132D02*
Y-1764256D01*
X876983Y-1788132D02*
X939975D01*
X876983D02*
Y-1764256D01*
X939975D01*
X601440Y-1605626D02*
X646946D01*
X653161Y-1646345D02*
Y-1624932D01*
X602159Y-1664615D02*
X646227D01*
X595176Y-1646330D02*
Y-1624947D01*
X432955Y-1955182D02*
X538975D01*
X432955D02*
Y-1907201D01*
X538975D01*
Y-1955131D02*
Y-1907201D01*
Y-1955182D02*
Y-1955131D01*
X432965Y-1949190D02*
X538964D01*
X603279Y-1913980D02*
Y-1856482D01*
Y-1916342D02*
Y-1913980D01*
Y-1918526D02*
Y-1916342D01*
X648458Y-1917986D02*
Y-1856482D01*
Y-1920163D02*
Y-1917986D01*
D11*
X718258Y-1622142D02*
G03*
X718283Y-1622142I13J-1500D01*
G01*
X688024Y-1752203D02*
G03*
X688024Y-1752203I-25001J0D01*
G01*
X556453Y-1835909D02*
G03*
X556453Y-1835909I-25001J0D01*
G01*
X470892Y-1834969D02*
G03*
X470892Y-1834969I-25001J0D01*
G01*
D12*
X739746Y-1631540D02*
G03*
X739797Y-1631540I25J-3000D01*
G01*
D13*
X513664Y-1900941D02*
G03*
X513639Y-1900941I-13J2000D01*
G01*
D14*
X658085Y-2021711D02*
Y-1986711D01*
X688085Y-2021711D02*
Y-1986711D01*
X681905Y-2021711D02*
X688085D01*
X658085D02*
X664265D01*
X658085Y-1986711D02*
X664265D01*
X681905D02*
X688085D01*
X575345Y-2022652D02*
Y-1987652D01*
X605345Y-2022652D02*
Y-1987652D01*
X599164Y-2022652D02*
X605345D01*
X575345D02*
X581524D01*
X575345Y-1987652D02*
X581524D01*
X599164D02*
X605345D01*
D15*
X787345Y-1592864D02*
Y-1567464D01*
X685745Y-1592864D02*
X787345D01*
X685745D02*
Y-1567464D01*
X704795D01*
X453493Y-1590984D02*
Y-1565584D01*
X555093D01*
Y-1590984D02*
Y-1565584D01*
X536043Y-1590984D02*
X555093D01*
X1030839Y-1860791D02*
X1056239D01*
Y-1962391D02*
Y-1860791D01*
X1030839Y-1962391D02*
X1056239D01*
X1030839D02*
Y-1943341D01*
X1021463Y-2067684D02*
Y-2042284D01*
X919864Y-2067684D02*
X1021463D01*
X919864D02*
Y-2042284D01*
X938913D01*
X715818Y-2044164D02*
X734868D01*
X715818Y-2069565D02*
Y-2044164D01*
Y-2069565D02*
X868218D01*
Y-2044164D01*
D16*
X704795Y-1567464D02*
X787345D01*
X453493Y-1590984D02*
X536043D01*
X1030839Y-1943341D02*
Y-1860791D01*
X938913Y-2042284D02*
X1021463D01*
X734868Y-2044164D02*
X868218D01*
X605036Y-2086429D02*
X603370Y-2084763D01*
X600038D01*
X598372Y-2086429D01*
Y-2088095D01*
X600038Y-2089761D01*
X603370D01*
X605036Y-2091427D01*
Y-2093094D01*
X603370Y-2094760D01*
X600038D01*
X598372Y-2093094D01*
X610034Y-2094760D02*
X613367D01*
X615033Y-2093094D01*
Y-2089761D01*
X613367Y-2088095D01*
X610034D01*
X608368Y-2089761D01*
Y-2093094D01*
X610034Y-2094760D01*
X618365D02*
X621697D01*
X620031D01*
Y-2088095D01*
X618365D01*
X626696Y-2094760D02*
X630028D01*
X628362D01*
Y-2084763D01*
X626696D01*
X645023Y-2094760D02*
Y-2084763D01*
X648355Y-2088095D01*
X651688Y-2084763D01*
Y-2094760D01*
X656686D02*
X660018D01*
X661684Y-2093094D01*
Y-2089761D01*
X660018Y-2088095D01*
X656686D01*
X655020Y-2089761D01*
Y-2093094D01*
X656686Y-2094760D01*
X665017D02*
X668349D01*
X666683D01*
Y-2088095D01*
X665017D01*
X673347Y-2094760D02*
X678346D01*
X680012Y-2093094D01*
X678346Y-2091427D01*
X675013D01*
X673347Y-2089761D01*
X675013Y-2088095D01*
X680012D01*
X685010Y-2086429D02*
Y-2088095D01*
X683344D01*
X686676D01*
X685010D01*
Y-2093094D01*
X686676Y-2094760D01*
X691675Y-2088095D02*
Y-2093094D01*
X693341Y-2094760D01*
X698339D01*
Y-2088095D01*
X701671D02*
Y-2094760D01*
Y-2091427D01*
X703337Y-2089761D01*
X705004Y-2088095D01*
X706670D01*
X716666Y-2094760D02*
X713334D01*
X711668Y-2093094D01*
Y-2089761D01*
X713334Y-2088095D01*
X716666D01*
X718333Y-2089761D01*
Y-2091427D01*
X711668D01*
X731662Y-2094760D02*
Y-2084763D01*
X734994Y-2088095D01*
X738326Y-2084763D01*
Y-2094760D01*
X746657D02*
X743325D01*
X741658Y-2093094D01*
Y-2089761D01*
X743325Y-2088095D01*
X746657D01*
X748323Y-2089761D01*
Y-2091427D01*
X741658D01*
X753321Y-2086429D02*
Y-2088095D01*
X751655D01*
X754987D01*
X753321D01*
Y-2093094D01*
X754987Y-2094760D01*
X764984D02*
X761652D01*
X759986Y-2093094D01*
Y-2089761D01*
X761652Y-2088095D01*
X764984D01*
X766650Y-2089761D01*
Y-2091427D01*
X759986D01*
X769983Y-2088095D02*
Y-2094760D01*
Y-2091427D01*
X771649Y-2089761D01*
X773315Y-2088095D01*
X774981D01*
X779979Y-2089761D02*
X786644D01*
X796640Y-2084763D02*
X789976D01*
Y-2094760D01*
X796640D01*
X789976Y-2089761D02*
X793308D01*
X799973Y-2084763D02*
Y-2094760D01*
X804971D01*
X806637Y-2093094D01*
Y-2086429D01*
X804971Y-2084763D01*
X799973D01*
X809969Y-2094760D02*
Y-2084763D01*
X814968D01*
X816634Y-2086429D01*
Y-2089761D01*
X814968Y-2091427D01*
X809969D01*
X813302D02*
X816634Y-2094760D01*
X829963D02*
Y-2084763D01*
X834961D01*
X836628Y-2086429D01*
Y-2089761D01*
X834961Y-2091427D01*
X829963D01*
X839960Y-2088095D02*
Y-2094760D01*
Y-2091427D01*
X841626Y-2089761D01*
X843292Y-2088095D01*
X844958D01*
X851623Y-2094760D02*
X854955D01*
X856621Y-2093094D01*
Y-2089761D01*
X854955Y-2088095D01*
X851623D01*
X849957Y-2089761D01*
Y-2093094D01*
X851623Y-2094760D01*
X859953Y-2098092D02*
X861619D01*
X863286Y-2096426D01*
Y-2088095D01*
X874948Y-2094760D02*
X871616D01*
X869950Y-2093094D01*
Y-2089761D01*
X871616Y-2088095D01*
X874948D01*
X876615Y-2089761D01*
Y-2091427D01*
X869950D01*
X886611Y-2088095D02*
X881613D01*
X879947Y-2089761D01*
Y-2093094D01*
X881613Y-2094760D01*
X886611D01*
X891610Y-2086429D02*
Y-2088095D01*
X889944D01*
X893276D01*
X891610D01*
Y-2093094D01*
X893276Y-2094760D01*
D17*
X893569Y-1622314D02*
Y-1633741D01*
X899282D01*
X901187Y-1631836D01*
Y-1624219D01*
X899282Y-1622314D01*
X893569D01*
X904995Y-1624219D02*
X906900Y-1622314D01*
X910708D01*
X912613Y-1624219D01*
Y-1626123D01*
X910708Y-1628027D01*
X908804D01*
X910708D01*
X912613Y-1629932D01*
Y-1631836D01*
X910708Y-1633741D01*
X906900D01*
X904995Y-1631836D01*
X663747Y-1793353D02*
X661742Y-1791556D01*
X657939Y-1791763D01*
X656141Y-1793768D01*
X656556Y-1801375D01*
X658561Y-1803172D01*
X662364Y-1802965D01*
X664162Y-1800960D01*
X668069Y-1802654D02*
X671872Y-1802446D01*
X669970Y-1802550D01*
X669348Y-1791141D01*
X667550Y-1793146D01*
X578791Y-1834289D02*
X576887Y-1832384D01*
X573078D01*
X571174Y-1834289D01*
Y-1841906D01*
X573078Y-1843811D01*
X576887D01*
X578791Y-1841906D01*
X590218Y-1843811D02*
X582600D01*
X590218Y-1836193D01*
Y-1834289D01*
X588313Y-1832384D01*
X584504D01*
X582600Y-1834289D01*
X486986Y-1834432D02*
X485081Y-1832527D01*
X481272D01*
X479368Y-1834432D01*
Y-1842049D01*
X481272Y-1843954D01*
X485081D01*
X486986Y-1842049D01*
X490794Y-1834432D02*
X492699Y-1832527D01*
X496507D01*
X498412Y-1834432D01*
Y-1836336D01*
X496507Y-1838241D01*
X494603D01*
X496507D01*
X498412Y-1840145D01*
Y-1842049D01*
X496507Y-1843954D01*
X492699D01*
X490794Y-1842049D01*
X674027Y-2042771D02*
X672123Y-2040867D01*
X668314D01*
X666410Y-2042771D01*
Y-2050389D01*
X668314Y-2052293D01*
X672123D01*
X674027Y-2050389D01*
X683549Y-2052293D02*
Y-2040867D01*
X677836Y-2046580D01*
X685454D01*
X588328Y-2044433D02*
X586423Y-2042529D01*
X582614D01*
X580710Y-2044433D01*
Y-2052050D01*
X582614Y-2053955D01*
X586423D01*
X588328Y-2052050D01*
X599754Y-2042529D02*
X592136D01*
Y-2048242D01*
X595945Y-2046337D01*
X597850D01*
X599754Y-2048242D01*
Y-2052050D01*
X597850Y-2053955D01*
X594041D01*
X592136Y-2052050D01*
X1025420Y-1817378D02*
Y-1828804D01*
X1031133D01*
X1033037Y-1826900D01*
Y-1819282D01*
X1031133Y-1817378D01*
X1025420D01*
X1036846Y-1828804D02*
X1040655D01*
X1038751D01*
Y-1817378D01*
X1036846Y-1819282D01*
X616315Y-1715771D02*
Y-1727198D01*
X622028D01*
X623932Y-1725293D01*
Y-1717676D01*
X622028Y-1715771D01*
X616315D01*
X635358Y-1727198D02*
X627741D01*
X635358Y-1719580D01*
Y-1717676D01*
X633454Y-1715771D01*
X629645D01*
X627741Y-1717676D01*
X801440Y-1575586D02*
Y-1587012D01*
Y-1581299D01*
X809058D01*
Y-1575586D01*
Y-1587012D01*
X812867D02*
X816675D01*
X814771D01*
Y-1575586D01*
X812867Y-1577490D01*
X566500Y-1572716D02*
Y-1584142D01*
Y-1578429D01*
X574118D01*
Y-1572716D01*
Y-1584142D01*
X585544D02*
X577927D01*
X585544Y-1576525D01*
Y-1574620D01*
X583640Y-1572716D01*
X579831D01*
X577927Y-1574620D01*
X1006783Y-1907107D02*
Y-1918533D01*
Y-1912820D01*
X1014400D01*
Y-1907107D01*
Y-1918533D01*
X1018209Y-1909011D02*
X1020114Y-1907107D01*
X1023922D01*
X1025827Y-1909011D01*
Y-1910916D01*
X1023922Y-1912820D01*
X1022018D01*
X1023922D01*
X1025827Y-1914724D01*
Y-1916629D01*
X1023922Y-1918533D01*
X1020114D01*
X1018209Y-1916629D01*
X963398Y-2020630D02*
Y-2032056D01*
Y-2026343D01*
X971015D01*
Y-2020630D01*
Y-2032056D01*
X982442Y-2020630D02*
X974824D01*
Y-2026343D01*
X978633Y-2024438D01*
X980537D01*
X982442Y-2026343D01*
Y-2030152D01*
X980537Y-2032056D01*
X976729D01*
X974824Y-2030152D01*
X788445Y-2027813D02*
X788688Y-2039236D01*
X788567Y-2033525D01*
X796182Y-2033363D01*
X796061Y-2027651D01*
X796304Y-2039075D01*
X805824Y-2038872D02*
X805581Y-2027448D01*
X799990Y-2033282D01*
X807606Y-2033120D01*
X480678Y-2081601D02*
X476870Y-2081536D01*
X478774Y-2081568D01*
X478611Y-2091089D01*
X476675Y-2092961D01*
X474771Y-2092928D01*
X472899Y-2090991D01*
X484291Y-2093091D02*
X488099Y-2093156D01*
X486195Y-2093123D01*
X486391Y-2081699D01*
X484454Y-2083570D01*
X1009262Y-1581703D02*
Y-1593129D01*
X1016880D01*
X1028306Y-1583607D02*
X1026402Y-1581703D01*
X1022593D01*
X1020688Y-1583607D01*
Y-1585511D01*
X1022593Y-1587416D01*
X1026402D01*
X1028306Y-1589320D01*
Y-1591225D01*
X1026402Y-1593129D01*
X1022593D01*
X1020688Y-1591225D01*
X1032115Y-1593129D02*
X1035923D01*
X1034019D01*
Y-1581703D01*
X1032115Y-1583607D01*
X925045Y-1691776D02*
Y-1684159D01*
X923141Y-1682254D01*
X919332D01*
X917428Y-1684159D01*
Y-1691776D01*
X919332Y-1693681D01*
X923141D01*
X921237Y-1689872D02*
X925045Y-1693681D01*
X923141D02*
X925045Y-1691776D01*
X928854Y-1693681D02*
X932663D01*
X930759D01*
Y-1682254D01*
X928854Y-1684159D01*
X901184Y-1843820D02*
Y-1832394D01*
X906897D01*
X908801Y-1834299D01*
Y-1838107D01*
X906897Y-1840012D01*
X901184D01*
X904993D02*
X908801Y-1843820D01*
X912610D02*
X916419D01*
X914515D01*
Y-1832394D01*
X912610Y-1834299D01*
X464498Y-1697435D02*
X464255Y-1686011D01*
X469967Y-1685890D01*
X471912Y-1687753D01*
X471992Y-1691561D01*
X470129Y-1693506D01*
X464417Y-1693627D01*
X468225Y-1693546D02*
X472114Y-1697273D01*
X483538Y-1697030D02*
X475922Y-1697192D01*
X483376Y-1689414D01*
X483335Y-1687510D01*
X481391Y-1685647D01*
X477583Y-1685728D01*
X475719Y-1687672D01*
X466504Y-1778556D02*
Y-1767130D01*
X472217D01*
X474121Y-1769034D01*
Y-1772843D01*
X472217Y-1774747D01*
X466504D01*
X470312D02*
X474121Y-1778556D01*
X477930Y-1769034D02*
X479834Y-1767130D01*
X483643D01*
X485548Y-1769034D01*
Y-1770938D01*
X483643Y-1772843D01*
X481739D01*
X483643D01*
X485548Y-1774747D01*
Y-1776651D01*
X483643Y-1778556D01*
X479834D01*
X477930Y-1776651D01*
X900854Y-1938784D02*
Y-1927358D01*
X906567D01*
X908472Y-1929262D01*
Y-1933071D01*
X906567Y-1934975D01*
X900854D01*
X904663D02*
X908472Y-1938784D01*
X917994D02*
Y-1927358D01*
X912281Y-1933071D01*
X919898D01*
X898606Y-1756281D02*
Y-1744855D01*
X904319D01*
X906223Y-1746759D01*
Y-1750568D01*
X904319Y-1752472D01*
X898606D01*
X902414D02*
X906223Y-1756281D01*
X917650Y-1744855D02*
X910032D01*
Y-1750568D01*
X913841Y-1748663D01*
X915745D01*
X917650Y-1750568D01*
Y-1754377D01*
X915745Y-1756281D01*
X911936D01*
X910032Y-1754377D01*
X629753Y-1586176D02*
X627849Y-1584272D01*
X624040D01*
X622136Y-1586176D01*
Y-1588081D01*
X624040Y-1589985D01*
X627849D01*
X629753Y-1591889D01*
Y-1593794D01*
X627849Y-1595698D01*
X624040D01*
X622136Y-1593794D01*
X633562Y-1595698D02*
X637371D01*
X635467D01*
Y-1584272D01*
X633562Y-1586176D01*
X751176Y-1795831D02*
Y-1805353D01*
X753081Y-1807258D01*
X756889D01*
X758794Y-1805353D01*
Y-1795831D01*
X762603Y-1807258D02*
X766411D01*
X764507D01*
Y-1795831D01*
X762603Y-1797736D01*
X478343Y-1885510D02*
Y-1895032D01*
X480248Y-1896936D01*
X484056D01*
X485961Y-1895032D01*
Y-1885510D01*
X497387Y-1896936D02*
X489770D01*
X497387Y-1889319D01*
Y-1887415D01*
X495483Y-1885510D01*
X491674D01*
X489770Y-1887415D01*
X660329Y-1887015D02*
X667946Y-1898442D01*
Y-1887015D02*
X660329Y-1898442D01*
X671755D02*
X675564D01*
X673660D01*
Y-1887015D01*
X671755Y-1888920D01*
M02*
